STARTFONT 2.1
COMMENT Copyright (C) 2022 by Andrew G. Crowell. Creative Commons Attribution 4.0 International License (CC BY 4.0).
COMMENT om_buttons_shadow_outline.bdf
FONT -eggboycolor-omelette_buttons_shadow_outline-medium-r-normal--8-100-72-72-m-90-ISO8859-1
SIZE 8 72 72
FONTBOUNDINGBOX 8 8 0 -2
STARTPROPERTIES 13
FONT_ASCENT 6 
FONT_DESCENT 2
PIXEL_SIZE 8
POINT_SIZE 100
RESOLUTION_X 72
RESOLUTION_Y 72
SPACING "C"
DEFAULT_CHAR 32
AVERAGE_WIDTH 90
CHARSET_REGISTRY "ISO8859"
CHARSET_ENCODING "1"
FOUNDRY "eggboycolor"
COPYRIGHT "Copyright (C) 2022 by Andrew G. Crowell. Creative Commons Attribution 4.0 International License (CC BY 4.0)."
ENDPROPERTIES
CHARS 96
STARTCHAR char32
ENCODING 32
SWIDTH 800 0
DWIDTH 8 0
BBX 8 8 0 -2
BITMAP
00
00
18
00
C3
00
00
18
ENDCHAR
STARTCHAR char33
ENCODING 33
SWIDTH 800 0
DWIDTH 8 0
BBX 8 8 0 -2
BITMAP
00
00
18
00
C3
00
00
18
ENDCHAR
STARTCHAR char34
ENCODING 34
SWIDTH 800 0
DWIDTH 8 0
BBX 8 8 0 -2
BITMAP
00
00
18
00
C3
00
00
18
ENDCHAR
STARTCHAR char35
ENCODING 35
SWIDTH 800 0
DWIDTH 8 0
BBX 8 8 0 -2
BITMAP
00
00
18
00
C3
00
00
18
ENDCHAR
STARTCHAR char36
ENCODING 36
SWIDTH 800 0
DWIDTH 8 0
BBX 8 8 0 -2
BITMAP
00
00
18
00
C3
00
00
18
ENDCHAR
STARTCHAR char37
ENCODING 37
SWIDTH 800 0
DWIDTH 8 0
BBX 8 8 0 -2
BITMAP
00
00
00
00
00
C6
00
38
ENDCHAR
STARTCHAR char38
ENCODING 38
SWIDTH 800 0
DWIDTH 8 0
BBX 8 8 0 -2
BITMAP
00
00
00
00
00
C6
00
38
ENDCHAR
STARTCHAR char39
ENCODING 39
SWIDTH 800 0
DWIDTH 8 0
BBX 8 8 0 -2
BITMAP
00
00
00
00
00
C6
00
38
ENDCHAR
STARTCHAR char40
ENCODING 40
SWIDTH 800 0
DWIDTH 8 0
BBX 8 8 0 -2
BITMAP
00
00
00
00
00
C6
00
38
ENDCHAR
STARTCHAR char41
ENCODING 41
SWIDTH 800 0
DWIDTH 8 0
BBX 8 8 0 -2
BITMAP
00
00
00
00
00
C6
00
38
ENDCHAR
STARTCHAR char42
ENCODING 42
SWIDTH 800 0
DWIDTH 8 0
BBX 8 8 0 -2
BITMAP
00
00
00
00
00
00
82
7C
ENDCHAR
STARTCHAR char43
ENCODING 43
SWIDTH 800 0
DWIDTH 8 0
BBX 8 8 0 -2
BITMAP
00
00
00
00
00
00
82
7C
ENDCHAR
STARTCHAR char44
ENCODING 44
SWIDTH 800 0
DWIDTH 8 0
BBX 8 8 0 -2
BITMAP
00
00
00
00
00
00
82
7C
ENDCHAR
STARTCHAR char45
ENCODING 45
SWIDTH 800 0
DWIDTH 8 0
BBX 8 8 0 -2
BITMAP
00
00
00
00
00
00
82
7C
ENDCHAR
STARTCHAR char46
ENCODING 46
SWIDTH 800 0
DWIDTH 8 0
BBX 8 8 0 -2
BITMAP
00
00
00
00
00
42
3C
00
ENDCHAR
STARTCHAR char47
ENCODING 47
SWIDTH 800 0
DWIDTH 8 0
BBX 8 8 0 -2
BITMAP
00
00
00
00
66
00
18
00
ENDCHAR
STARTCHAR char48
ENCODING 48
SWIDTH 800 0
DWIDTH 8 0
BBX 8 8 0 -2
BITMAP
00
00
00
00
00
00
82
7C
ENDCHAR
STARTCHAR char49
ENCODING 49
SWIDTH 800 0
DWIDTH 8 0
BBX 8 8 0 -2
BITMAP
00
00
00
00
00
00
82
7C
ENDCHAR
STARTCHAR char50
ENCODING 50
SWIDTH 800 0
DWIDTH 8 0
BBX 8 8 0 -2
BITMAP
00
00
00
00
00
00
82
7C
ENDCHAR
STARTCHAR char51
ENCODING 51
SWIDTH 800 0
DWIDTH 8 0
BBX 8 8 0 -2
BITMAP
00
00
00
00
00
00
82
7C
ENDCHAR
STARTCHAR char52
ENCODING 52
SWIDTH 800 0
DWIDTH 8 0
BBX 8 8 0 -2
BITMAP
00
00
04
00
04
83
6E
3C
ENDCHAR
STARTCHAR char53
ENCODING 53
SWIDTH 800 0
DWIDTH 8 0
BBX 8 8 0 -2
BITMAP
00
00
22
00
22
81
57
3E
ENDCHAR
STARTCHAR char54
ENCODING 54
SWIDTH 800 0
DWIDTH 8 0
BBX 8 8 0 -2
BITMAP
00
00
0A
00
00
00
E5
7E
ENDCHAR
STARTCHAR char55
ENCODING 55
SWIDTH 800 0
DWIDTH 8 0
BBX 8 8 0 -2
BITMAP
00
00
25
10
20
00
D3
7E
ENDCHAR
STARTCHAR char56
ENCODING 56
SWIDTH 800 0
DWIDTH 8 0
BBX 8 8 0 -2
BITMAP
00
00
00
00
00
BD
42
3C
ENDCHAR
STARTCHAR char57
ENCODING 57
SWIDTH 800 0
DWIDTH 8 0
BBX 8 8 0 -2
BITMAP
00
00
18
04
18
A7
42
3C
ENDCHAR
STARTCHAR char58
ENCODING 58
SWIDTH 800 0
DWIDTH 8 0
BBX 8 8 0 -2
BITMAP
00
00
40
20
00
6E
00
FF
ENDCHAR
STARTCHAR char59
ENCODING 59
SWIDTH 800 0
DWIDTH 8 0
BBX 8 8 0 -2
BITMAP
00
00
44
22
04
6A
00
FF
ENDCHAR
STARTCHAR char60
ENCODING 60
SWIDTH 800 0
DWIDTH 8 0
BBX 8 8 0 -2
BITMAP
00
00
20
40
00
6E
81
7E
ENDCHAR
STARTCHAR char61
ENCODING 61
SWIDTH 800 0
DWIDTH 8 0
BBX 8 8 0 -2
BITMAP
00
00
24
42
04
6A
81
7E
ENDCHAR
STARTCHAR char62
ENCODING 62
SWIDTH 800 0
DWIDTH 8 0
BBX 8 8 0 -2
BITMAP
00
00
00
00
00
42
3C
00
ENDCHAR
STARTCHAR char63
ENCODING 63
SWIDTH 800 0
DWIDTH 8 0
BBX 8 8 0 -2
BITMAP
00
00
00
00
66
00
18
00
ENDCHAR
STARTCHAR char64
ENCODING 64
SWIDTH 800 0
DWIDTH 8 0
BBX 8 8 0 -2
BITMAP
00
00
00
00
00
00
82
7C
ENDCHAR
STARTCHAR char65
ENCODING 65
SWIDTH 800 0
DWIDTH 8 0
BBX 8 8 0 -2
BITMAP
00
00
00
00
00
00
82
7C
ENDCHAR
STARTCHAR char66
ENCODING 66
SWIDTH 800 0
DWIDTH 8 0
BBX 8 8 0 -2
BITMAP
00
00
00
00
00
00
82
7C
ENDCHAR
STARTCHAR char67
ENCODING 67
SWIDTH 800 0
DWIDTH 8 0
BBX 8 8 0 -2
BITMAP
00
00
00
00
00
00
82
7C
ENDCHAR
STARTCHAR char68
ENCODING 68
SWIDTH 800 0
DWIDTH 8 0
BBX 8 8 0 -2
BITMAP
00
00
00
08
00
E5
42
3C
ENDCHAR
STARTCHAR char69
ENCODING 69
SWIDTH 800 0
DWIDTH 8 0
BBX 8 8 0 -2
BITMAP
00
00
04
00
00
E7
42
3C
ENDCHAR
STARTCHAR char70
ENCODING 70
SWIDTH 800 0
DWIDTH 8 0
BBX 8 8 0 -2
BITMAP
00
00
20
04
20
D3
42
3C
ENDCHAR
STARTCHAR char71
ENCODING 71
SWIDTH 800 0
DWIDTH 8 0
BBX 8 8 0 -2
BITMAP
00
00
24
00
20
D7
42
3C
ENDCHAR
STARTCHAR char72
ENCODING 72
SWIDTH 800 0
DWIDTH 8 0
BBX 8 8 0 -2
BITMAP
00
00
00
00
00
00
82
7C
ENDCHAR
STARTCHAR char73
ENCODING 73
SWIDTH 800 0
DWIDTH 8 0
BBX 8 8 0 -2
BITMAP
00
00
00
00
00
00
82
7C
ENDCHAR
STARTCHAR char74
ENCODING 74
SWIDTH 800 0
DWIDTH 8 0
BBX 8 8 0 -2
BITMAP
00
00
00
00
00
00
82
7C
ENDCHAR
STARTCHAR char75
ENCODING 75
SWIDTH 800 0
DWIDTH 8 0
BBX 8 8 0 -2
BITMAP
00
00
00
00
00
00
82
7C
ENDCHAR
STARTCHAR char76
ENCODING 76
SWIDTH 800 0
DWIDTH 8 0
BBX 8 8 0 -2
BITMAP
00
00
00
00
00
00
82
7C
ENDCHAR
STARTCHAR char77
ENCODING 77
SWIDTH 800 0
DWIDTH 8 0
BBX 8 8 0 -2
BITMAP
00
00
00
00
00
00
82
7C
ENDCHAR
STARTCHAR char78
ENCODING 78
SWIDTH 800 0
DWIDTH 8 0
BBX 8 8 0 -2
BITMAP
00
00
00
00
00
42
3C
00
ENDCHAR
STARTCHAR char79
ENCODING 79
SWIDTH 800 0
DWIDTH 8 0
BBX 8 8 0 -2
BITMAP
00
00
00
00
66
00
18
00
ENDCHAR
STARTCHAR char80
ENCODING 80
SWIDTH 800 0
DWIDTH 8 0
BBX 8 8 0 -2
BITMAP
00
00
08
00
00
04
19
00
ENDCHAR
STARTCHAR char81
ENCODING 81
SWIDTH 800 0
DWIDTH 8 0
BBX 8 8 0 -2
BITMAP
00
00
95
40
80
00
09
00
ENDCHAR
STARTCHAR char82
ENCODING 82
SWIDTH 800 0
DWIDTH 8 0
BBX 8 8 0 -2
BITMAP
00
00
48
00
00
04
D9
00
ENDCHAR
STARTCHAR char83
ENCODING 83
SWIDTH 800 0
DWIDTH 8 0
BBX 8 8 0 -2
BITMAP
00
00
8C
00
18
04
58
00
ENDCHAR
STARTCHAR char84
ENCODING 84
SWIDTH 800 0
DWIDTH 8 0
BBX 8 8 0 -2
BITMAP
00
00
0C
00
18
04
19
00
ENDCHAR
STARTCHAR char85
ENCODING 85
SWIDTH 800 0
DWIDTH 8 0
BBX 8 8 0 -2
BITMAP
00
00
08
00
88
00
55
00
ENDCHAR
STARTCHAR char86
ENCODING 86
SWIDTH 800 0
DWIDTH 8 0
BBX 8 8 0 -2
BITMAP
00
00
8C
40
8C
00
5C
00
ENDCHAR
STARTCHAR char87
ENCODING 87
SWIDTH 800 0
DWIDTH 8 0
BBX 8 8 0 -2
BITMAP
00
00
00
00
00
00
3C
00
ENDCHAR
STARTCHAR char88
ENCODING 88
SWIDTH 800 0
DWIDTH 8 0
BBX 8 8 0 -2
BITMAP
00
00
18
04
18
00
24
00
ENDCHAR
STARTCHAR char89
ENCODING 89
SWIDTH 800 0
DWIDTH 8 0
BBX 8 8 0 -2
BITMAP
00
00
02
00
04
02
74
00
ENDCHAR
STARTCHAR char90
ENCODING 90
SWIDTH 800 0
DWIDTH 8 0
BBX 8 8 0 -2
BITMAP
00
00
22
10
24
02
54
00
ENDCHAR
STARTCHAR char91
ENCODING 91
SWIDTH 800 0
DWIDTH 8 0
BBX 8 8 0 -2
BITMAP
00
00
04
02
04
00
76
00
ENDCHAR
STARTCHAR char92
ENCODING 92
SWIDTH 800 0
DWIDTH 8 0
BBX 8 8 0 -2
BITMAP
00
00
24
02
24
00
56
00
ENDCHAR
STARTCHAR char93
ENCODING 93
SWIDTH 800 0
DWIDTH 8 0
BBX 8 8 0 -2
BITMAP
00
00
00
00
00
82
7C
00
ENDCHAR
STARTCHAR char94
ENCODING 94
SWIDTH 800 0
DWIDTH 8 0
BBX 8 8 0 -2
BITMAP
00
00
00
00
00
42
3C
00
ENDCHAR
STARTCHAR char95
ENCODING 95
SWIDTH 800 0
DWIDTH 8 0
BBX 8 8 0 -2
BITMAP
00
00
00
00
66
00
18
00
ENDCHAR
STARTCHAR char96
ENCODING 96
SWIDTH 800 0
DWIDTH 8 0
BBX 8 8 0 -2
BITMAP
00
00
00
00
00
00
24
18
ENDCHAR
STARTCHAR char97
ENCODING 97
SWIDTH 800 0
DWIDTH 8 0
BBX 8 8 0 -2
BITMAP
00
00
00
00
00
81
42
3C
ENDCHAR
STARTCHAR char98
ENCODING 98
SWIDTH 800 0
DWIDTH 8 0
BBX 8 8 0 -2
BITMAP
00
24
18
00
00
81
42
3C
ENDCHAR
STARTCHAR char99
ENCODING 99
SWIDTH 800 0
DWIDTH 8 0
BBX 8 8 0 -2
BITMAP
00
00
00
00
00
81
42
3C
ENDCHAR
STARTCHAR char100
ENCODING 100
SWIDTH 800 0
DWIDTH 8 0
BBX 8 8 0 -2
BITMAP
00
24
18
00
00
81
42
3C
ENDCHAR
STARTCHAR char101
ENCODING 101
SWIDTH 800 0
DWIDTH 8 0
BBX 8 8 0 -2
BITMAP
00
00
00
00
07
38
C0
00
ENDCHAR
STARTCHAR char102
ENCODING 102
SWIDTH 800 0
DWIDTH 8 0
BBX 8 8 0 -2
BITMAP
00
00
00
00
00
00
7E
00
ENDCHAR
STARTCHAR char103
ENCODING 103
SWIDTH 800 0
DWIDTH 8 0
BBX 8 8 0 -2
BITMAP
00
00
01
02
04
08
90
60
ENDCHAR
STARTCHAR char104
ENCODING 104
SWIDTH 800 0
DWIDTH 8 0
BBX 8 8 0 -2
BITMAP
00
00
00
00
00
00
82
7C
ENDCHAR
STARTCHAR char105
ENCODING 105
SWIDTH 800 0
DWIDTH 8 0
BBX 8 8 0 -2
BITMAP
00
00
00
00
00
00
82
7C
ENDCHAR
STARTCHAR char106
ENCODING 106
SWIDTH 800 0
DWIDTH 8 0
BBX 8 8 0 -2
BITMAP
00
00
00
00
00
00
82
7C
ENDCHAR
STARTCHAR char107
ENCODING 107
SWIDTH 800 0
DWIDTH 8 0
BBX 8 8 0 -2
BITMAP
00
00
00
00
00
00
82
7C
ENDCHAR
STARTCHAR char108
ENCODING 108
SWIDTH 800 0
DWIDTH 8 0
BBX 8 8 0 -2
BITMAP
00
00
00
00
00
80
7E
00
ENDCHAR
STARTCHAR char109
ENCODING 109
SWIDTH 800 0
DWIDTH 8 0
BBX 8 8 0 -2
BITMAP
00
00
00
00
00
02
FC
00
ENDCHAR
STARTCHAR char110
ENCODING 110
SWIDTH 800 0
DWIDTH 8 0
BBX 8 8 0 -2
BITMAP
00
00
00
00
00
42
3C
00
ENDCHAR
STARTCHAR char111
ENCODING 111
SWIDTH 800 0
DWIDTH 8 0
BBX 8 8 0 -2
BITMAP
00
00
00
00
66
00
18
00
ENDCHAR
STARTCHAR char112
ENCODING 112
SWIDTH 800 0
DWIDTH 8 0
BBX 8 8 0 -2
BITMAP
00
00
03
00
06
01
06
00
ENDCHAR
STARTCHAR char113
ENCODING 113
SWIDTH 800 0
DWIDTH 8 0
BBX 8 8 0 -2
BITMAP
00
00
30
00
30
00
77
00
ENDCHAR
STARTCHAR char114
ENCODING 114
SWIDTH 800 0
DWIDTH 8 0
BBX 8 8 0 -2
BITMAP
00
00
33
00
30
04
73
00
ENDCHAR
STARTCHAR char115
ENCODING 115
SWIDTH 800 0
DWIDTH 8 0
BBX 8 8 0 -2
BITMAP
00
00
50
00
00
00
20
00
ENDCHAR
STARTCHAR char116
ENCODING 116
SWIDTH 800 0
DWIDTH 8 0
BBX 8 8 0 -2
BITMAP
00
00
0D
00
18
04
18
00
ENDCHAR
STARTCHAR char117
ENCODING 117
SWIDTH 800 0
DWIDTH 8 0
BBX 8 8 0 -2
BITMAP
00
00
48
00
08
00
95
00
ENDCHAR
STARTCHAR char118
ENCODING 118
SWIDTH 800 0
DWIDTH 8 0
BBX 8 8 0 -2
BITMAP
00
00
94
40
80
00
48
00
ENDCHAR
STARTCHAR char119
ENCODING 119
SWIDTH 800 0
DWIDTH 8 0
BBX 8 8 0 -2
BITMAP
00
00
08
04
08
00
15
00
ENDCHAR
STARTCHAR char120
ENCODING 120
SWIDTH 800 0
DWIDTH 8 0
BBX 8 8 0 -2
BITMAP
00
00
08
00
00
00
D4
00
ENDCHAR
STARTCHAR char121
ENCODING 121
SWIDTH 800 0
DWIDTH 8 0
BBX 8 8 0 -2
BITMAP
00
00
00
00
82
7C
00
00
ENDCHAR
STARTCHAR char122
ENCODING 122
SWIDTH 800 0
DWIDTH 8 0
BBX 8 8 0 -2
BITMAP
00
00
00
00
82
7C
00
00
ENDCHAR
STARTCHAR char123
ENCODING 123
SWIDTH 800 0
DWIDTH 8 0
BBX 8 8 0 -2
BITMAP
00
00
00
00
00
00
82
7C
ENDCHAR
STARTCHAR char124
ENCODING 124
SWIDTH 800 0
DWIDTH 8 0
BBX 8 8 0 -2
BITMAP
00
00
00
00
00
00
82
7C
ENDCHAR
STARTCHAR char125
ENCODING 125
SWIDTH 800 0
DWIDTH 8 0
BBX 8 8 0 -2
BITMAP
00
00
00
00
00
00
82
7C
ENDCHAR
STARTCHAR char126
ENCODING 126
SWIDTH 800 0
DWIDTH 8 0
BBX 8 8 0 -2
BITMAP
00
00
00
00
00
00
82
7C
ENDCHAR
STARTCHAR char127
ENCODING 127
SWIDTH 800 0
DWIDTH 8 0
BBX 8 8 0 -2
BITMAP
00
00
00
00
00
00
82
7C
ENDCHAR
ENDFONT
